# xmcd
#
# Track frame offsets:
#	150
#	15137
#	24363
#	43083
#	59172
#	70705
#	82512
#	94119
#	113790
#	122749
#	133458
#	146434
#	159729
#	171030
#
# Disc length: 2394 seconds
#
# Revision: 1
# Processed by: cddbd v1.4PL0 Copyright (c) Steve Scherf et al.
# Submitted via: audiograbber 1.82.02
#
DISCID=b309580e
DTITLE=Biller and Wakefield - The Hot Guitars of Biller and Wakefield
DYEAR=1999
DGENRE=Country
TTITLE0=George's Bad Day
TTITLE1=Martian Guts
TTITLE2=Them There SHoes
TTITLE3=Chicken at an Exhibition
TTITLE4=Steel Crazy
TTITLE5=Foggy Island
TTITLE6=Biller Barges In
TTITLE7=The Wandering Texan
TTITLE8=Grinding Gears
TTITLE9=I Don't Mind
TTITLE10=Siamese Strings
TTITLE11=Night In Topeka
TTITLE12=Good Enough
TTITLE13=Guitars On Fire
EXTD=
EXTT0=
EXTT1=
EXTT2=
EXTT3=
EXTT4=
EXTT5=
EXTT6=
EXTT7=
EXTT8=
EXTT9=
EXTT10=
EXTT11=
EXTT12=
EXTT13=
PLAYORDER=
